<?xml version="1.0" standalone="no"?>
<!DOCTYPE svg PUBLIC "-//W3C//DTD SVG 20010904//EN"
 "http://www.w3.org/TR/2001/REC-SVG-20010904/DTD/svg10.dtd">
<svg version="1.0" xmlns="http://www.w3.org/2000/svg"
 width="1536.000000pt" height="768.000000pt" viewBox="0 0 1536.000000 768.000000"
 preserveAspectRatio="xMidYMid meet">

<g transform="translate(0.000000,768.000000) scale(0.100000,-0.100000)"
fill="#000000" stroke="none">
<path d="M1540 4415 l0 -2495 2300 0 2300 0 0 95 0 95 -2210 0 -2210 0 0 2305
0 2305 5960 0 5960 0 0 -2305 0 -2305 -2210 0 -2210 0 0 -95 0 -95 2300 0
2300 0 0 2495 0 2495 -6140 0 -6140 0 0 -2495z"/>
<path d="M9710 5058 l0 -232 -27 27 c-77 73 -220 93 -325 44 -137 -63 -208
-210 -208 -426 0 -155 37 -270 111 -355 108 -123 298 -135 421 -27 39 34 48
29 48 -30 l0 -29 105 0 105 0 0 630 0 630 -115 0 -115 0 0 -232z m-87 -332
c18 -7 45 -28 60 -45 l27 -33 0 -178 0 -178 -27 -33 c-33 -39 -79 -59 -136
-59 -100 0 -159 84 -165 235 -5 106 10 190 41 237 41 61 127 85 200 54z"/>
<path d="M10196 5255 c-55 -29 -77 -89 -53 -147 18 -42 37 -58 84 -69 112 -25
198 74 148 171 -29 56 -116 77 -179 45z"/>
<path d="M4520 5226 c-66 -14 -89 -27 -142 -74 -49 -44 -75 -94 -86 -166 -15
-97 5 -176 71 -273 l36 -53 -61 -47 c-148 -117 -192 -255 -127 -402 83 -189
371 -255 604 -138 l59 29 33 -36 33 -36 125 0 c69 0 125 3 125 6 0 3 -38 48
-84 100 l-84 95 34 67 c37 73 59 152 69 250 l7 62 -100 0 -99 0 -6 -57 c-3
-32 -14 -80 -24 -107 l-20 -48 -93 108 c-52 60 -100 116 -107 125 -11 14 -6
21 42 54 31 21 77 61 104 90 106 117 105 272 -5 379 -45 44 -89 65 -162 76
-68 12 -72 12 -142 -4z m148 -192 c34 -23 55 -71 48 -109 -9 -44 -37 -79 -100
-121 l-51 -34 -17 22 c-30 39 -58 106 -58 138 0 69 49 120 115 120 22 0 51 -7
63 -16z m-34 -654 c58 -68 105 -129 103 -135 -12 -36 -182 -58 -236 -30 -101
52 -117 184 -34 276 29 33 39 38 49 27 6 -7 60 -69 118 -138z"/>
<path d="M6994 5230 c-150 -23 -262 -92 -317 -195 -18 -32 -22 -57 -22 -130 0
-104 16 -144 85 -213 59 -58 129 -96 286 -153 209 -75 244 -101 251 -188 7
-84 -50 -137 -160 -148 -134 -14 -236 43 -259 145 l-13 52 -119 0 -119 0 7
-52 c27 -198 218 -331 476 -331 197 -1 334 64 398 187 35 69 38 197 6 267 -50
108 -153 182 -345 248 -206 70 -259 107 -259 183 0 93 66 142 190 142 84 0
122 -15 164 -64 14 -18 29 -49 32 -71 l7 -39 120 0 120 0 -7 47 c-13 99 -80
201 -163 250 -92 54 -246 81 -359 63z"/>
<path d="M3160 4625 l0 -597 288 5 c301 5 340 10 429 56 57 29 111 84 136 140
31 68 31 219 0 277 -27 51 -95 111 -134 119 -16 4 -29 10 -28 13 0 4 21 21 47
37 27 18 59 50 77 79 26 42 30 61 34 132 3 71 0 90 -21 136 -42 91 -106 141
-225 174 -44 12 -123 17 -330 21 l-273 5 0 -597z m530 382 c50 -17 80 -67 80
-134 0 -121 -50 -152 -242 -153 l-128 0 0 150 0 150 128 -1 c71 0 142 -5 162
-12z m30 -479 c55 -28 80 -73 80 -144 0 -64 -29 -111 -85 -139 -32 -16 -66
-20 -177 -23 l-138 -4 0 166 0 166 138 0 c123 0 143 -2 182 -22z"/>
<path d="M5330 4625 l0 -595 380 0 380 0 0 95 0 95 -260 0 -260 0 0 500 0 500
-120 0 -120 0 0 -595z"/>
<path d="M7720 5030 l0 -110 -65 0 -65 0 0 -85 0 -85 64 0 65 0 3 -282 c3
-263 4 -286 24 -328 40 -85 106 -123 219 -123 39 -1 87 2 108 7 l37 7 0 87 0
87 -60 0 c-97 0 -94 -8 -98 290 l-3 255 76 0 75 0 0 85 0 85 -75 0 -75 0 0
110 0 110 -115 0 -115 0 0 -110z"/>
<path d="M10880 4919 c-69 -12 -144 -47 -196 -92 -48 -42 -107 -150 -123 -225
-14 -68 -14 -196 0 -264 47 -223 236 -351 471 -318 215 30 348 198 348 441 0
256 -125 423 -341 458 -72 12 -83 12 -159 0z m153 -193 c82 -34 122 -133 115
-286 -4 -81 -9 -105 -32 -147 -38 -69 -88 -97 -165 -91 -72 5 -111 32 -143 96
-20 42 -23 61 -23 172 0 118 1 128 28 176 47 84 135 116 220 80z"/>
<path d="M11781 4919 c-156 -27 -261 -132 -261 -260 1 -132 99 -222 289 -265
158 -36 205 -65 203 -126 -1 -42 -49 -87 -95 -90 -59 -3 -111 4 -140 18 -29
16 -67 68 -67 94 0 12 -18 15 -107 14 l-108 -1 2 -38 c3 -47 41 -112 90 -155
84 -74 224 -109 361 -90 178 25 286 121 287 255 0 81 -9 108 -52 156 -50 55
-110 83 -252 118 -135 34 -153 41 -175 73 -23 32 -20 73 8 104 20 24 33 28 88
32 92 6 128 -15 152 -90 5 -16 20 -18 121 -18 l115 0 -6 28 c-20 91 -54 143
-124 187 -79 50 -221 73 -329 54z"/>
<path d="M8242 4573 l3 -348 27 -57 c50 -108 123 -151 253 -151 95 1 150 19
212 69 l43 35 0 -45 0 -46 110 0 110 0 0 445 0 445 -115 0 -115 0 0 -316 c0
-299 -1 -317 -20 -344 -39 -54 -157 -78 -221 -44 -56 28 -59 51 -59 394 l0
310 -116 0 -115 0 3 -347z"/>
<path d="M10150 4475 l0 -445 115 0 115 0 0 445 0 445 -115 0 -115 0 0 -445z"/>
<path d="M7181 3143 c-15 -12 -25 -37 -31 -76 -19 -122 -77 -167 -215 -167
-190 0 -320 -78 -382 -231 -28 -70 -24 -189 9 -261 52 -113 151 -189 268 -205
l55 -8 5 -628 5 -629 37 -34 c31 -28 45 -34 83 -34 38 0 52 6 83 34 l37 34 6
414 c6 467 6 470 84 556 24 26 67 61 97 77 46 26 64 29 133 30 69 0 88 -4 139
-30 71 -36 129 -99 156 -171 19 -52 20 -77 20 -445 0 -345 2 -395 17 -426 32
-68 115 -93 180 -53 63 38 63 37 63 479 0 272 4 408 11 424 20 45 94 62 136
32 12 -9 27 -32 33 -53 6 -22 10 -191 10 -431 l0 -393 39 -39 c34 -34 44 -39
86 -39 42 0 52 5 86 39 l39 39 0 629 0 630 56 11 c119 24 232 108 276 206 22
49 23 63 26 331 l3 280 -94 -94 -95 -93 -58 23 c-74 29 -223 32 -293 5 -24 -9
-50 -16 -58 -16 -7 0 -54 39 -103 86 l-90 87 0 -271 c0 -250 2 -276 21 -327
35 -93 125 -171 243 -211 l41 -14 -64 6 c-183 16 -298 115 -331 286 l-15 81
-140 51 c-245 91 -295 99 -426 72 -155 -33 -332 -146 -440 -281 -50 -62 -68
-67 -133 -35 -49 24 -72 53 -87 112 -22 80 11 162 81 202 28 17 60 22 155 27
142 6 188 23 265 95 64 60 101 134 108 219 4 59 2 68 -18 90 -28 30 -87 34
-119 8z m1162 -515 c34 -18 46 -39 47 -81 0 -53 -35 -87 -90 -87 -55 0 -90 34
-90 87 1 73 70 115 133 81z m288 -17 c32 -33 37 -67 14 -110 -17 -33 -33 -41
-84 -41 -90 0 -121 127 -41 167 42 21 79 16 111 -16z"/>
<path d="M7364 1901 c-48 -22 -101 -82 -114 -131 -6 -20 -10 -201 -10 -420 0
-364 1 -387 20 -417 37 -62 116 -81 178 -43 62 38 62 40 62 560 l0 470 -47 0
c-27 0 -66 -9 -89 -19z"/>
</g>
</svg>
